REM DIRINDEX 1\2\6,1\2\4\7,1\2\4\8,1\2\5\9,1\3\12,1\3\10\13,1\3\10\14,1\3\10\15,1\3\11\16,1\3\11\17
REM DIRNAME folder01,folder02,folder03,folder04,folder05,folder06,folder07,folder08,folder09,folder10,folder11,folder12,folder13,folder14,folder15,folder16,folder17
TITLE ""
FILE "178.mp3" MP3
  TRACK 01 AUDIO
    TITLE "6:cjc048_04403"
    INDEX 01 00:00:00
  TRACK 02 AUDIO
    TITLE "9:cjc048_04404"
    INDEX 01 00:01:69
  TRACK 03 AUDIO
    TITLE "0:"
    INDEX 01 00:03:15
  TRACK 04 AUDIO
    TITLE "9:cjc048_04405"
    INDEX 01 00:03:63
  TRACK 05 AUDIO
    TITLE "0:"
    INDEX 01 00:05:03
  TRACK 06 AUDIO
    TITLE "9:cjc048_04406"
    INDEX 01 00:05:50
  TRACK 07 AUDIO
    TITLE "0:"
    INDEX 01 00:06:73
  TRACK 08 AUDIO
    TITLE "9:cjc048_04407"
    INDEX 01 00:07:45
  TRACK 09 AUDIO
    TITLE "0:"
    INDEX 01 00:08:73
  TRACK 10 AUDIO
    TITLE "9:cjc048_04408"
    INDEX 01 00:09:45
  TRACK 11 AUDIO
    TITLE "0:"
    INDEX 01 00:10:66
  TRACK 12 AUDIO
    TITLE "9:cjc048_04409"
    INDEX 01 00:11:39
  TRACK 13 AUDIO
    TITLE "0:"
    INDEX 01 00:12:44
  TRACK 14 AUDIO
    TITLE "9:cjc048_04410"
    INDEX 01 00:13:14
  TRACK 15 AUDIO
    TITLE "0:"
    INDEX 01 00:14:37
  TRACK 16 AUDIO
    TITLE "9:cjc048_04411"
    INDEX 01 00:15:07
  TRACK 17 AUDIO
    TITLE "0:"
    INDEX 01 00:16:14
  TRACK 18 AUDIO
    TITLE "9:cjc048_04412"
    INDEX 01 00:16:59
  TRACK 19 AUDIO
    TITLE "0:"
    INDEX 01 00:17:74
  TRACK 20 AUDIO
    TITLE "9:cjc048_04413"
    INDEX 01 00:18:44
  TRACK 21 AUDIO
    TITLE "0:"
    INDEX 01 00:19:60
  TRACK 22 AUDIO
    TITLE "9:cjc048_04414"
    INDEX 01 00:20:32
  TRACK 23 AUDIO
    TITLE "0:"
    INDEX 01 00:21:58
  TRACK 24 AUDIO
    TITLE "9:cjc048_04415"
    INDEX 01 00:22:27
  TRACK 25 AUDIO
    TITLE "0:"
    INDEX 01 00:23:40
  TRACK 26 AUDIO
    TITLE "9:cjc048_04416"
    INDEX 01 00:24:10
  TRACK 27 AUDIO
    TITLE "0:"
    INDEX 01 00:25:64
  TRACK 28 AUDIO
    TITLE "9:cjc048_04417"
    INDEX 01 00:26:34
  TRACK 29 AUDIO
    TITLE "0:"
    INDEX 01 00:27:57
  TRACK 30 AUDIO
    TITLE "9:cjc048_04418"
    INDEX 01 00:28:27
  TRACK 31 AUDIO
    TITLE "0:"
    INDEX 01 00:29:56
  TRACK 32 AUDIO
    TITLE "9:cjc048_04419"
    INDEX 01 00:30:24
  TRACK 33 AUDIO
    TITLE "0:"
    INDEX 01 00:31:41
  TRACK 34 AUDIO
    TITLE "9:cjc048_04420"
    INDEX 01 00:32:09
  TRACK 35 AUDIO
    TITLE "0:"
    INDEX 01 00:33:46
  TRACK 36 AUDIO
    TITLE "9:cjc048_04421"
    INDEX 01 00:34:14
  TRACK 37 AUDIO
    TITLE "0:"
    INDEX 01 00:35:23
  TRACK 38 AUDIO
    TITLE "9:cjc048_04422"
    INDEX 01 00:35:70
  TRACK 39 AUDIO
    TITLE "0:"
    INDEX 01 00:37:22
  TRACK 40 AUDIO
    TITLE "9:cjc048_04423"
    INDEX 01 00:37:65
  TRACK 41 AUDIO
    TITLE "0:"
    INDEX 01 00:39:13
  TRACK 42 AUDIO
    TITLE "9:cjc048_04424"
    INDEX 01 00:39:56
  TRACK 43 AUDIO
    TITLE "0:"
    INDEX 01 00:41:10
  TRACK 44 AUDIO
    TITLE "9:cjc048_04425"
    INDEX 01 00:41:55
  TRACK 45 AUDIO
    TITLE "0:"
    INDEX 01 00:42:72
  TRACK 46 AUDIO
    TITLE "9:cjc048_04426"
    INDEX 01 00:43:42
  TRACK 47 AUDIO
    TITLE "0:"
    INDEX 01 00:44:54
  TRACK 48 AUDIO
    TITLE "9:cjc048_04427"
    INDEX 01 00:45:37
  TRACK 49 AUDIO
    TITLE "0:"
    INDEX 01 00:46:70
  TRACK 50 AUDIO
    TITLE "9:cjc048_04428"
    INDEX 01 00:47:40
  TRACK 51 AUDIO
    TITLE "0:"
    INDEX 01 00:48:61
  TRACK 52 AUDIO
    TITLE "9:cjc048_04429"
    INDEX 01 00:49:31
  TRACK 53 AUDIO
    TITLE "0:"
    INDEX 01 00:50:56
  TRACK 54 AUDIO
    TITLE "9:cjc048_04430"
    INDEX 01 00:51:24
  TRACK 55 AUDIO
    TITLE "0:"
    INDEX 01 00:52:39
  TRACK 56 AUDIO
    TITLE "9:cjc048_04431"
    INDEX 01 00:53:08
  TRACK 57 AUDIO
    TITLE "0:"
    INDEX 01 00:54:17
  TRACK 58 AUDIO
    TITLE "9:cjc048_04432"
    INDEX 01 00:54:62
  TRACK 59 AUDIO
    TITLE "0:"
    INDEX 01 00:56:14
  TRACK 60 AUDIO
    TITLE "9:cjc048_04433"
    INDEX 01 00:56:63
  TRACK 61 AUDIO
    TITLE "0:"
    INDEX 01 00:57:74
  TRACK 62 AUDIO
    TITLE "9:cjc048_04434"
    INDEX 01 00:58:48
  TRACK 63 AUDIO
    TITLE "0:"
    INDEX 01 00:59:61
  TRACK 64 AUDIO
    TITLE "9:cjc048_04435"
    INDEX 01 01:00:37
  TRACK 65 AUDIO
    TITLE "0:"
    INDEX 01 01:01:72
  TRACK 66 AUDIO
    TITLE "9:cjc048_04436"
    INDEX 01 01:02:48
  TRACK 67 AUDIO
    TITLE "0:"
    INDEX 01 01:03:59
  TRACK 68 AUDIO
    TITLE "9:cjc048_04437"
    INDEX 01 01:04:29
  TRACK 69 AUDIO
    TITLE "0:"
    INDEX 01 01:05:44
  TRACK 70 AUDIO
    TITLE "9:cjc048_04438"
    INDEX 01 01:06:14
  TRACK 71 AUDIO
    TITLE "0:"
    INDEX 01 01:07:35
  TRACK 72 AUDIO
    TITLE "9:cjc048_04439"
    INDEX 01 01:08:07
  TRACK 73 AUDIO
    TITLE "0:"
    INDEX 01 01:09:14
  TRACK 74 AUDIO
    TITLE "9:cjc048_04440"
    INDEX 01 01:09:59
  TRACK 75 AUDIO
    TITLE "0:"
    INDEX 01 01:11:07
  TRACK 76 AUDIO
    TITLE "9:cjc048_04441"
    INDEX 01 01:11:54
  TRACK 77 AUDIO
    TITLE "0:"
    INDEX 01 01:13:00
  TRACK 78 AUDIO
    TITLE "9:cjc048_04442"
    INDEX 01 01:13:44
  TRACK 79 AUDIO
    TITLE "0:"
    INDEX 01 01:14:49
  TRACK 80 AUDIO
    TITLE "9:cjc048_04443"
    INDEX 01 01:15:19
  TRACK 81 AUDIO
    TITLE "0:"
    INDEX 01 01:16:28
  TRACK 82 AUDIO
    TITLE "9:cjc048_04444"
    INDEX 01 01:17:00
  TRACK 83 AUDIO
    TITLE "0:"
    INDEX 01 01:18:15
  TRACK 84 AUDIO
    TITLE "9:cjc048_04445"
    INDEX 01 01:18:62
  TRACK 85 AUDIO
    TITLE "0:"
    INDEX 01 01:20:14
  TRACK 86 AUDIO
    TITLE "9:cjc048_04446"
    INDEX 01 01:20:59
  TRACK 87 AUDIO
    TITLE "0:"
    INDEX 01 01:22:03
  TRACK 88 AUDIO
    TITLE "9:cjc048_04447"
    INDEX 01 01:22:46
  TRACK 89 AUDIO
    TITLE "0:"
    INDEX 01 01:23:65
